Release                                  : Era Uma Vez Eu Verônica (2012)Era Uma Vez Eu Verônica (2012) Marcelo Gomes.DVDRip.MKO.lucmor.mkv
Format                                   : Matroska
Format version                           : Version 1
File size                                : 1.07 GiB
Duration                                 : 1h 31mn
Overall bit rate                         : 1 679 Kbps
Encoded date                             : UTC 2013-05-09 22:12:37
Writing application                      : VirtualDubMod 1.5.10.2 (build 2540/release)
Writing library                          : libebml-0.7.5 & libmatroska-0.7.7

Video
ID                                       : 1
Format                                   : AVC
Format/Info                              : Advanced Video Codec
Format profile                           : Main@L3.0
Format settings, CABAC                   : Yes
Format settings, ReFrames                : 2 frames
Codec ID                                 : H264
Duration                                 : 1h 31mn
Bit rate                                 : 1 484 Kbps
Width                                    : 608 pixels
Height                                   : 384 pixels
Display aspect ratio                     : 1.583
Frame rate                               : 23.976 fps
Color space                              : YUV
Chroma subsampling                       : 4:2:0
Bit depth                                : 8 bits
Scan type                                : Progressive
Bits/(Pixel*Frame)                       : 0.265
Stream size                              : 950 MiB (87%)
Writing library                          : x264 core 93 r1538bm bd72d46

Audio
ID                                       : 2
Format                                   : MPEG Audio
Format version                           : Version 1
Format profile                           : Layer 3
Mode                                     : Joint stereo
Mode extension                           : MS Stereo
Codec ID                                 : A_MPEG/L3
Codec ID/Hint                            : MP3
Duration                                 : 1h 31mn
Bit rate mode                            : Constant
Bit rate                                 : 192 Kbps
Channel(s)                               : 2 channels
Sampling rate                            : 48.0 KHz
Compression mode                         : Lossy
Stream size                              : 125 MiB (11%)
Writing library                          : LAME3.97 
Encoding settings                        : -m j -V 4 -q 2 -lowpass 18.6 -b 192
Language                                 : Portuguese